<?xml version="1.0" encoding="UTF-8"?>
<svg id="Layer_1" data-name="Layer 1" xmlns="http://www.w3.org/2000/svg" viewBox="80 380 880 280">
  
  <path class="cls-1" fill="#000" d="M124.31,602.26l.18-9.64-4.05,11.81c-.04-5.7.12-9.25-.72-13.71l-6.52,18.76c-1-7.56,1.81-13.49,2.87-20.34l2.04-13.3-6.27,20.03c-.73,2.33-1.37,3.93-3.7,6.54l1.97-15.23,35.09-147.64,3.56,11.87,1.71-13.53,2.93,6.12.99-5.16.83,3.68c.16.71.86.86,2.75,1.13l.38-6.01,1.23,2.94c.24.57,1.02.57,2.36.83l8.72,82.2,25.28-54.56c6.94-14.97,14.02-28.78,22.61-42.81l-.26,8.68,5.31-7.33-.19,6.82,4.67-8.53,3.74,1.66-1.57,9.12,5.71-6.27-6.03,29.54c-8.43,41.31-17.32,81.67-24.54,123.26-3.09,17.8-5.94,34.24-10.47,52.43-2.04-3.2-1.52-6.78-1.17-10.58l1.94-21.22-6.28,21.42c-1.43-8.02-.34-15.64.8-23.88l2.18-15.78-.99-.37-7.32,37.97c-2.1-2.16-2.09-4.07-1.82-6.24,3.22-25.77,7.72-50.46,12.4-75.94l9.07-49.37c-10.73,22.88-19.59,45.68-29.1,68.94l-5.6,11.47-2.51-5.03-4.98,5.93-1.17-10.56-3.02,5.24-8.8-67.1-20.76,91.04-3.47,10.71Z"></path>
  <path class="cls-1" fill="#000" d="M509.85,520.27l-14.73,41.92c-2.77-6.87,2.33-11.69,1.3-18.48l-7.27,16.7,2.62-17.6-7.82,15.69c1.39-13.18,6.25-24.39,9.46-36.25l-1.43-2.85c-.32-.65,1.09-2.12,1.79-2.87l-3.08-1.02,3.06-1.1c.49-.18,1.53-1.19,1.13-1.51l-1.77-1.44c2.65-1.4,4.67-2.98,5.7-5.54l20.15-53.75c.54-.79,1.85-3.28,2.69-2.98l3.99,1.43,4.77-6.58,1.51,7.79,3.49-6.65,1,7.81,3.7-3.69.45,49.5,4.65.53-3.39,1.03c-.67.2-1.87,1-1.43,1.52l2.39,2.8-2.96,1.95,2.56.47c.59.11,1-1.54,1.44-1.95l1.46-1.35c.28-.25.15.81.25,2.25l10.18-5.51-6.89-.96c3.46-.83,6.14-2.98,6.24-6.03l-7.26,1.54,9.07-7.49,9.42-46.08,8.26-32.86c1.12,12.25-4.18,22.46-4.13,34.62l7.32-27.51c3.14,4.65-5.13,29.07-3.37,26.27.18-.29,1.07-1.35,1.16-1.68l2.71-9.88c2.44-8.88,4.27-17.01,8.52-25.01-.25,9.63-1.96,17.8-3.44,26.71l-6.29,38.04c10.61-10.7,19.09-22.2,32.2-30.86l-7.67,11.39,6.38-4.91-1.01,2.86,7.71-.43-10.99,14.43-26.9,31.32,12.8,19.35,22.52,30.12c-6.34-3.54-10.45-8.73-16.65-13.52l9.35,14.33-11.65-9.83c1.61,4.41,3.96,7.55,6.76,12.27-9.91-6.46-16.9-15.42-24.09-24.59l-7.72-9.84-8.64,40.24-1.49-7.42c-1.15,2.41-1.98,2.26-1.91.04-.7-.79-1.25-1.38-1.44-1.08l-1.88,2.98,1.91-12.19c-3.67,2.71-.05,8.53-6.8,11.08-.02-9.51,2.1-19.44,3.83-29.01l2.4-13.26c-5.56,2.36-9.82,4.68-13.86,8.2l.81,36.24c-1.38-4.28-1.27-7.77-3.85-11.06l.61,17.13-4.99-18.62-1.13,19.67-2.1-13.54-2.36,10.72c-2.26-11.02-1.03-20.58-1.98-31.06l-.47-5.15-14.87,4.03ZM524.87,501l-.26-23.32-9.07,25.52,9.33-2.2Z"></path>
  <path class="cls-1" fill="#000" d="M461.36,590.9l2.17-16.16-3.86,7.54,3.77-20.18,1.35-2.67c.23-.45-1.24-1.21-1.54-1.34l-12.2,33.1,5.87-31.39-7.69,21.58c-.09-4.98.52-9.7,1.89-15.14l31.03-123.68-55.35,10.3,20.51-7.7-13.2.47-9.5,1.44,6.17-3.84-3.1-.66c-.46-.1.86-1.35,1.29-1.55l4.29-1.8-13.21.46c11.08-3.61,22.23-6.14,34.27-8.38l32.32-6.01,7.97-25.54c.26,5.4-.56,9.09-1.31,14.69l5.34-10.6-1.22,10.72,5.66-10.89-.7,9.33,5.44-11.37c-.07,7.38-1.86,13.22-3.59,20.43,19.72-3.19,39.1-6.18,58.85-7.66l-21.38,6.24,14.52-.17-15.43,4.2,8.76.36-3.05,2.25,7.54-.02-10.43,3.4-43.33,8.58-15.4,60.44-15.78,65.32-7.75,25.9Z"></path>
  <path class="cls-1" fill="#000" d="M282.68,559.02l-5.54,24.13c.38-21.67,3.87-42.01,7.8-63.04l8.3-44.39,3.88,9.1,3.12-10.49,1.72,11.07,3.95-4.92,15.73,59.94,11.97-58.68c2.47-12.12,5.03-23.56,8.95-35.1.57,10.4-2.49,19.15-3.73,29.46l8.58-26.69c1.99,9.03-1.4,16.27-1.59,24.97,1.82-2.46,1.64-6.23,2.54-8.98l6.4-19.58c-1.57,15.78-4.3,30.21-7.2,45.63l-12.81,68.07-4.03,16.83-1.29-4.46-4.09,11.47-1.72-4.88-3.49,4.61-1.52-8.3-2.37,7.72-16.37-57.89c-4.74,20.02-6.85,39.01-9.86,58.87l-3.65-13.02-3.37,10.77-.29-22.23Z"></path>
  <path class="cls-1" fill="#000" d="M761.73,518.67l-19.17-27.32-10.08,43.95-1.22-13.13-5.89,9.76,1.49-21.11-6.86,17.16c.35-8.8,2.15-17.48,4.09-26.63l4.43-20.88c-2.81-.4-2.4-.96-1.33-1.43l1.72-1.39c.25-.2-.09-1.19-.4-1.15l-3.5.36,4.77-3.12-3.91-.87,5.8-4.43-7.08.53,7.26-4.19,9.38-38.4,11.44-35.23c2.07,11.34-2.91,19.91-1.59,30.68l5.01-15.52c2.05-6.36,3.42-12.22,6.64-17.89-.12,8.89-.99,16.57-2.66,24.53l-7.25,34.57,15.22-14.42,17.14-14.69-6.51,10.58,6.86-4.55-3.07,5.78c.25,2.58-.59,4.17-2.14,6.79l8.37-5.78c-11.33,14.61-23.61,26.95-36.52,40.23l40.46,63.61-7.73-4.96,6.22,12.58-15.32-14.51-6.89-5.98,8.66,12.12,5.12,8.31c-8.2-6.93-14.61-14.89-20.97-23.95Z"></path>
  <path class="cls-1" fill="#000" d="M742.84,553.49l-75.9,10.78c-57.52,8.17-113.87,17.96-170.8,28.83-3.68.7-6.65.8-10.34.65l15.59-5.63-26.02,1.7,20.93-8.81-23.03,1.87c5.08-2.68,9.77-4.22,15.47-5.42,79.31-16.7,150.26-27.89,231.36-33.14l16.08-1.04-11.95,2.22-43.43,5.06c15.15,1.53,31.17-4.64,46.27-2.15l-14.15,2.02.55.57,9.95-.39.91,1.05-7.96.78.68.99,16.67.17,9.11-.12Z"></path>
  <path class="cls-1" fill="#000" d="M816.28,505.1l-4.99,8.22c-2.64,4.35-8.34,6.8-12.82,6.82-13.61.04-19.34-14.45-17.4-29.16,1.93-14.68,5.65-28.7,9.75-42.92,2.72-9.45,5.61-17.84,10.15-26.73l-1.63,17.77,6.02-15.02,1.33,9.94,6.4-10.29-6.81,28.51-8.74,39.2c-.7,3.13.42,7.33,1.82,10.14,2.74-.19,5.35-2.77,6.99-5.29,8.83-13.58,12.92-28.69,17.56-44.29l11.58-38.98.44,11.15,5.8-11.33-3.21,19.87,5.2-13.96.44,3.2c1.05-1.35,2.03-2.59,3.6-4.11l-15.35,74.37-4.91,28.31-1.81-8.71-3.45,10.37c-2.64-6.62,2.61-9.86-2.96-11.13l-3.29,6.29.32-12.26Z"></path>
  <path class="cls-1" fill="#000" d="M678.74,430.81l-1.75,15.39,5.21-13.92.41,11.18,7.66-10.94c-2.52,24.56-11.68,46.34-14.2,70.36-.46,4.4-.12,9.22,2.66,12.73,9.67-1.53,17.62-24.99,20.76-37.06l11.56-44.42,3.58-10.38-.09,9.63c1.39.71.72,3.62.74,5.66l7.25-17.54-1.38,16.11,5.94-15.15,1.26-.4-13.25,62.88c-3.28,15.55-4.93,30.08-6.4,46.32l-2.73-12.38-2.65,13.97-1.34-12.94-3.52,9.79-.18-12.87c-6.63,9.7-14.2,17.87-25.51,14.2-23.46-7.61-8.7-52.06-2.74-74.85,2.31-8.83,3.87-16.97,8.72-25.38Z"></path>
  <path class="cls-1" fill="#000" d="M228.15,581.19c-5.08-3.26-7.62-9.23-8.79-14.72-4.6-21.63,6.58-48.18,17.29-67.5-.29-.33-1.71-1.44-1.4-1.73l2.05-1.94,2.18-2.06c.43-.41-.86-1.48-1.57-2.32,5.15-3.77,11.31-7.15,17.86-6.82l7.87.4c8.76,4.83,13.49,15.02,13.67,25.59.37,22.25-6.78,53.02-23.2,67.92-7.17,6.51-17.41,8.67-25.97,3.19ZM240.09,570.46c11.06-5.92,16.31-25.93,19.01-39.26,2.17-10.73,3.56-21.08,1.78-32.33-5.35,1.31-9.01,4.95-11.69,9.45-8.95,15.05-14.79,31.88-15.04,49.6-.07,4.79.9,11.1,5.93,12.54Z"></path>
  <path class="cls-1" fill="#000" d="M645.55,516.91l5.58-3.34-4.32,5.49,7.47-4.11-8.29,8.27,10.08-5.6c-4.96,9.11-12.93,14.82-21.76,18.76-8.95,3.99-19.2.97-25.11-6.72-5.15-6.7-7.32-15.1-6.58-23.74,1.43-16.63,6.4-32.25,14.52-46.66,6.84-12.13,20.52-28.78,33.84-30.14,8.37-.85,14.17,6.76,13.34,14.96-1.12,11.03-5.55,21.12-12.33,30.25l-2.62-3-5.03-.1c-1.12-.02-2.9-2.84-2.51-4.11l6.39-20.56c-24.1,13.54-39.05,70.21-23.89,76.61,2.93,1.23,7.33.23,9.86-1.78l15.22-12.11-3.88,7.63Z"></path>
  <path class="cls-1" fill="#000" d="M399.9,586.23c2.15-9.99,5.8-18.52,9.67-27.6l17.77-41.73-11.58-29.75c-3.36-8.63-6.66-16.8-7.05-26.65l6.84,10.14-1.62-11.5,6.43,11.63-.95-11.46c7.11,12.15,11.96,23.83,17.5,37.48l5.68-11.01c5.02-9.74,9.23-18.91,15.39-28.13l-2.96,12.42c4.01-1.34,6.55-3.1,8.8-6.14l-1.46,8,5.91-8.29c-1.84,7.4-4.13,13.06-7.12,19.62l-31.5,69.28-18.23,41.32c-1.24-9.71,4.58-16.08,4.83-25.67l-10.81,22.14-1.31-.94,7.27-24.25-11.52,21.1Z"></path>
  <path class="cls-1" fill="#000" d="M400.04,557.64c-16.39,6.22-33.67,9.97-51.27,13.2l-6.94-3.25,2.58-2.24c.36-.31,1.48-1.59,1.03-1.74l-2.61-.87,3.98-3.22-7.2-.34,7.94-3.26,6.45-29.42-5.39.54,6.78-4.43-6.73-.91,7.54-3.04-5.78-1.29c5.93-.91,7.4-2.86,8.44-7.52l5.03-22.4-7.09.53,8.19-5.77-5.47-1.64,5.57-2.06-7.74-1.78,9.06-3.24c1.01-.36,2.27-3.21,2.87-4.71l2.41,2.8,1.71-.98c.3-.17,1.27.55,1.66.75,9.16-1.75,18.82-3.94,27.97-3.24l-11.4,3.45,9.61.59-8.34,3.1,10.73.2-11.79,4.82c3.41.02,5.36-1.09,9.04.93l-22.22,5.32-5.52,24.66c10.25-1.65,19.27-4.04,30.03-4.19l-11.62,4.2,5.56.31-4.25,2.25,9.49-.43-9.58,3.41,12.44.75-35.55,8.9-6.04,26.14c13.4-2.55,26.22-5.07,39.41-5.53l-15.18,5.26,14.46.2-13.99,4.59,11.71.59Z"></path>
  <path class="cls-1" fill="#000" d="M848.86,478.88l-6.02.07,6.51-5.24-6.57.06,8.14-4.28-9.33.2,11.33-5.2,10.82-44.28-8.45.79,8.41-3.45-11.3.54,5.37-4.82-4.22-1.82,12.96-5.03c.48-.19,1.98-.96,1.92-1.46l-.45-3.52,6.27,2.73,10.7-.43c9.56-.39,19.19,1.17,26.07,8.24,4.56,4.68,5.68,11.66,4.27,18.21-4.79,22.25-28.62,34.79-48.79,44.38l-18.82,75.81c-3.13-7.44,1.12-13.1.73-20.99l-6.48,14.57c-1.33-6.75.63-10.95.5-17.4l-7.35,22.56c-.02-5.91.66-11.31,1.91-16.92l11.87-53.32ZM899.71,423.33c-5.07-5.45-13.4-5.68-19.97-4.02l-8.36,35.78c11.93-6.51,29.49-18.39,28.33-31.76Z"></path>
</svg>